Coordinates
version=1
nRows=7
nColumns=63
inDegrees=yes

Units are S.I. units (second, meters, Newtons, ...)
If the header above contains a line with 'inDegrees', this indicates whether rotational values are in degrees (yes) or radians (no).

endheader
time	pelvis_tilt	pelvis_list	pelvis_rotation	pelvis_tx	pelvis_ty	pelvis_tz	hip_flexion_r	hip_adduction_r	hip_rotation_r	knee_angle_r	knee_angle_r_beta	ankle_angle_r	subtalar_angle_r	mtp_angle_r	hip_flexion_l	hip_adduction_l	hip_rotation_l	knee_angle_l	knee_angle_l_beta	ankle_angle_l	subtalar_angle_l	mtp_angle_l	L5_S1_Flex_Ext	L5_S1_Lat_Bending	L5_S1_axial_rotation	L4_L5_Flex_Ext	L4_L5_Lat_Bending	L4_L5_axial_rotation	L3_L4_Flex_Ext	L3_L4_Lat_Bending	L3_L4_axial_rotation	L2_L3_Flex_Ext	L2_L3_Lat_Bending	L2_L3_axial_rotation	L1_L2_Flex_Ext	L1_L2_Lat_Bending	L1_L2_axial_rotation	L1_T12_Flex_Ext	L1_T12_Lat_Bending	L1_T12_axial_rotation	Abs_r3	Abs_r2	Abs_r1	Abs_t1	Abs_t2	neck_flexion	neck_bending	neck_rotation	arm_flex_r	arm_add_r	arm_rot_r	elbow_flex_r	pro_sup_r	wrist_flex_r	wrist_dev_r	arm_flex_l	arm_add_l	arm_rot_l	elbow_flex_l	pro_sup_l	wrist_flex_l	wrist_dev_l
      2.51666667	     -0.66164573	      4.04031934	    -73.14762123	      0.03642040	      0.95109453	     -1.36139510	      1.37512142	      5.42196433	    -36.50070941	     22.15685776	      0.38671012	     22.51874955	    -11.52418997	      0.00000000	     30.78158344	     16.99670118	     30.43424509	     18.80560411	      0.32821971	    -15.17547179	    -18.81542818	      0.00000000	     -0.02975825	      0.46394854	     -1.92571239	     -0.05526404	      0.61705156	     -2.04606942	     -0.04888983	      1.12804448	     -2.04606942	     -0.03401070	      1.12804448	     -1.68499835	     -0.02763351	      0.94608386	     -1.56464132	     -0.01700386	      0.71865629	     -1.44428430	     -0.21256020	      5.24827865	    -10.71023463	      0.00000000	      0.00000000	    -11.43390029	      4.91970726	    -13.47162060	    -19.10828252	    -21.00222665	    -28.45657662	     46.85896619	     89.99559364	      0.00000000	      0.00000000	     -6.30021162	    -22.74007074	     18.73809300	     22.12530797	     89.99559364	      0.00000000	      0.00000000
      2.53333333	     -1.34544132	      3.12346664	    -75.38251301	      0.03129070	      0.95129857	     -1.35130971	     -0.26055266	      6.97439744	    -33.88515594	     21.40993505	      0.37367386	     21.83949587	    -11.42409572	      0.00000000	     30.79022907	     15.06872589	     26.25336897	     21.71113697	      0.37893082	    -13.33936805	    -17.35070537	      0.00000000	     -0.03026576	      0.45247104	     -2.03780894	     -0.05620654	      0.60178649	     -2.16517200	     -0.04972361	      1.10013810	     -2.16517200	     -0.03459074	      1.10013810	     -1.78308282	     -0.02810478	      0.92267895	     -1.65571976	     -0.01729385	      0.70087765	     -1.52835670	     -0.21618529	      5.11844294	    -11.33368196	      0.00000000	      0.00000000	    -13.54620542	      4.37071464	     -8.31997362	    -18.03106935	    -22.47866239	    -24.95534002	     48.74601509	     89.99559364	      0.00000000	      0.00000000	     -6.76312547	    -23.11909897	     17.92330968	     21.14313476	     89.99559364	      0.00000000	      0.00000000
      2.55000000	     -1.91450874	      2.33368416	    -77.19177804	      0.02607086	      0.95171329	     -1.34134266	     -1.89143615	      8.33370871	    -31.38681009	     20.61238122	      0.35975392	     21.24823933	    -11.60854885	      0.00000000	     31.19760591	     12.62932278	     18.87388173	     24.68821480	      0.43089063	    -10.20797501	    -10.35739895	      0.00000000	     -0.03338035	      0.41163171	     -2.08795439	     -0.06199064	      0.54747017	     -2.21845154	     -0.05484057	      1.00084134	     -2.21845154	     -0.03815040	      1.00084134	     -1.82696009	     -0.03099699	      0.83939938	     -1.69646294	     -0.01907353	      0.63761752	     -1.56596579	     -0.23843249	      4.65646023	    -11.61257591	      0.00000000	      0.00000000	    -15.33834465	      3.65416462	     -4.72901593	    -17.15050234	    -23.70256391	    -21.94005975	     50.34569800	     89.99559364	      0.00000000	      0.00000000	     -6.84963238	    -23.72457905	     17.34225025	     20.33879422	     89.99559364	      0.00000000	      0.00000000
      2.56666667	     -2.54200807	      1.81790963	    -78.47605803	      0.02144153	      0.95224947	     -1.33105714	     -3.29068480	      9.58002370	    -29.38715915	     19.87298806	      0.34684907	     20.68720890	    -11.73606281	      0.00000000	     31.76441432	      9.96592681	     11.57366912	     27.54950049	      0.48082949	     -7.63347683	     -2.46639572	      0.00000000	     -0.03456228	      0.36615319	     -1.95390202	     -0.06418561	      0.48698374	     -2.07602090	     -0.05678237	      0.89026486	     -2.07602090	     -0.03950123	      0.89026486	     -1.70966427	     -0.03209453	      0.74665958	     -1.58754539	     -0.01974889	      0.56717128	     -1.46542652	     -0.24687491	      4.14199806	    -10.86701689	      0.00000000	      0.00000000	    -16.47605380	      3.57559874	     -3.15814570	    -17.22770168	    -24.44786272	    -20.94069695	     52.10999796	     89.99559364	      0.00000000	      0.00000000	     -6.02644173	    -24.24388544	     16.88576609	     19.42244978	     89.99559364	      0.00000000	      0.00000000
      2.58333333	     -3.09722026	      1.67751156	    -79.31050350	      0.01773425	      0.95302009	     -1.32012346	     -4.36022081	     10.57069444	    -27.94947992	     19.15939036	      0.33439444	     20.06390701	    -11.76319027	      0.00000000	     32.10514698	      7.97613596	      7.06312518	     29.59497280	      0.51652972	     -6.44468416	      1.65973053	      0.00000000	     -0.03565119	      0.30245514	     -1.61252544	     -0.06620783	      0.40226534	     -1.71330828	     -0.05857135	      0.73538943	     -1.71330828	     -0.04074575	      0.73538943	     -1.41095976	     -0.03310570	      0.61676653	     -1.31017692	     -0.02037109	      0.46850302	     -1.20939408	     -0.25465292	      3.42143306	     -8.96838277	      0.00000000	      0.00000000	    -16.83162523	      4.18209032	     -3.35918540	    -18.37445334	    -24.57278245	    -22.55104350	     54.03882113	     89.99559364	      0.00000000	      0.00000000	     -4.50319205	    -24.71797844	     16.40130224	     19.26517072	     89.99559364	      0.00000000	      0.00000000
      2.60000000	     -3.45773277	      1.88675061	    -79.67801779	      0.01403582	      0.95389214	     -1.30807884	     -4.89198929	     11.26598743	    -26.87546218	     18.94817011	      0.33070796	     19.37632727	    -12.46304215	      0.00000000	     32.36175372	      6.74036617	      4.73680398	     30.95139329	      0.54020372	     -5.48891263	      3.91090336	      0.00000000	     -0.03261724	      0.18883906	     -1.23971837	     -0.06057348	      0.25115595	     -1.31720076	     -0.05358686	      0.45914329	     -1.31720076	     -0.03727824	      0.45914329	     -1.08475357	     -0.03028837	      0.38508061	     -1.00727117	     -0.01863749	      0.29251170	     -0.92978877	     -0.23298168	      2.13618521	     -6.89494164	      0.00000000	      0.00000000	    -16.54568118	      5.63142893	     -4.92429898	    -19.92962010	    -24.31568137	    -24.55762547	     55.76342195	     89.99559364	      0.00000000	      0.00000000	     -3.19917531	    -25.32502334	     14.80095407	     19.80731474	     89.99559364	      0.00000000	      0.00000000
      2.61666667	     -3.92994296	      2.29090599	    -79.88601393	      0.01106319	      0.95473462	     -1.29533065	     -4.96324893	     11.67625212	    -27.02200996	     19.52107009	      0.34070695	     18.94113691	    -11.77254149	      0.00000000	     32.51510147	      6.27861332	      5.40746381	     31.76383115	      0.55438344	     -4.47135903	      2.89657682	      0.00000000	     -0.03195766	      0.08283300	     -0.95873562	     -0.05934858	      0.11016789	     -1.01865660	     -0.05250325	      0.20140016	     -1.01865660	     -0.03652441	      0.20140016	     -0.83889367	     -0.02967589	      0.16891305	     -0.77897269	     -0.01826061	      0.12830832	     -0.71905172	     -0.22827040	      0.93702346	     -5.33219992	      0.00000000	      0.00000000	    -15.85606814	      6.69740777	     -6.61955915	    -21.35508935	    -24.20265462	    -26.66935007	     58.06299735	     89.99559364	      0.00000000	      0.00000000	     -2.90752455	    -25.33233826	      9.06462770	     21.14766312	     89.99559364	      0.00000000	      0.00000000
